<svg width="39" height="40" viewBox="0 0 39 40" fill="none" xmlns="http://www.w3.org/2000/svg">
<path d="M37.9612 13.773C37.939 13.6393 37.9163 13.5058 37.891 13.3729C37.8101 12.945 37.8101 12.945 37.8101 12.945C37.6964 12.4816 37.184 12.1026 36.6716 12.1025L24.2482 12.1014C23.7356 12.1013 23.187 12.5003 23.029 12.9878L20.3895 21.1368C20.3116 21.3774 20.2091 21.6739 20.3223 21.8341C20.4386 21.9984 20.7748 22.0233 21.0344 22.0233H26.0924C26.0924 22.0233 26.3287 22.0214 26.3601 22.1854C26.3938 22.3596 26.2126 22.5472 26.2126 22.5472L17.2968 31.9178C16.9849 32.2457 16.4402 32.8175 16.0868 33.1885L13.7998 35.5882C13.7998 35.5882 13.7531 35.6407 13.6985 35.691C13.6671 35.7201 13.6368 35.7455 13.608 35.768C13.2907 36.0145 13.1407 35.8766 13.2723 35.4258L14.4361 31.4378C14.5797 30.9459 14.8145 30.1406 14.9581 29.6487L15.6247 27.3646C15.7364 26.9815 15.8633 26.5471 15.9431 26.2732C15.9658 26.1954 16.0186 25.9555 15.9388 25.8342C15.8631 25.719 15.7356 25.6972 15.5923 25.6972C15.4372 25.6972 15.2544 25.6972 15.0621 25.6972H10.2448C9.73215 25.6972 9.5601 25.4377 9.86234 25.1205C10.1646 24.8034 10.7011 24.2403 11.0548 23.8693L14.8001 19.9396C15.1538 19.5685 15.6982 18.9967 16.0103 18.6687C16.3224 18.3407 16.8668 17.7687 17.2201 17.3973L17.8525 16.7325C18.2059 16.3611 18.784 15.7534 19.1372 15.3821L20.4352 14.0182C20.7884 13.6468 21.3433 13.0636 21.6681 12.7221C21.993 12.3807 22.344 12.0118 22.448 11.9024C22.552 11.793 22.9261 11.3997 23.2796 11.0283L30.5005 3.43904C30.8539 3.06764 30.7848 2.54556 30.3473 2.27871C30.3473 2.27871 29.3259 1.65613 28.3567 1.25142C25.8377 0.199363 23.1031 -0.174993 20.3408 0.0743228C19.562 0.144679 18.7828 0.26424 18.0078 0.432021C15.9164 0.885062 13.8681 1.68265 11.9402 2.78819C10.7364 3.47816 9.58465 4.28638 8.50224 5.20079C5.95276 7.35421 3.81325 10.076 2.29314 13.2276C1.53796 14.7932 0.981034 16.3748 0.604376 17.9402C-0.185213 21.2215 -0.178747 24.4434 0.493143 27.3424C0.939828 29.2715 1.68317 31.0702 2.69139 32.6676C2.75287 32.7651 2.81577 32.8621 2.87933 32.9581C3.42191 33.7781 4.03813 34.5443 4.72328 35.248C5.76843 36.3213 6.97993 37.2534 8.35144 38.0067C9.03528 38.3825 9.7372 38.7013 10.4518 38.9671C10.8579 39.1179 11.2684 39.2522 11.6827 39.3688C12.3931 39.5691 13.1155 39.7192 13.8451 39.8222C20.2009 40.7175 27.5923 37.9213 32.6994 31.7894C33.6767 30.6159 34.528 29.3746 35.2516 28.0858C36.2018 26.394 36.9307 24.6199 37.4295 22.8114C37.8454 21.3032 38.1003 19.7733 38.1899 18.2511C38.2792 16.7373 38.2046 15.2344 37.9612 13.773Z" fill="#000000"/>
</svg>
